<svg id="svg" version="1.1" xmlns="http://www.w3.org/2000/svg" xmlns:xlink="http://www.w3.org/1999/xlink" width="400" height="400" viewBox="0, 0, 400,400"><g id="svgg"><path id="path0" d="M157.600 24.965 C 157.600 25.314,158.222 25.635,159.227 25.805 C 161.429 26.177,160.829 26.600,158.100 26.600 C 155.852 26.600,154.658 27.341,156.700 27.469 C 159.893 27.668,162.023 28.162,162.645 28.849 C 163.096 29.348,163.806 29.580,164.762 29.540 C 166.064 29.486,166.091 29.464,165.039 29.308 C 164.400 29.213,163.680 28.916,163.439 28.649 C 162.743 27.880,161.600 25.590,161.600 24.968 C 161.600 24.553,161.060 24.400,159.600 24.400 C 158.144 24.400,157.600 24.554,157.600 24.965 M136.800 27.125 C 136.800 27.304,136.170 27.698,135.400 28.000 C 134.630 28.302,134.000 28.696,134.000 28.875 C 134.000 29.054,133.640 29.200,133.200 29.200 C 132.760 29.200,132.400 29.380,132.400 29.600 C 132.400 29.820,132.208 30.000,131.974 30.000 C 131.740 30.000,130.656 30.916,129.565 32.036 L 127.583 34.071 128.593 34.866 C 129.149 35.304,129.864 35.921,130.181 36.238 C 130.498 36.555,130.902 36.790,131.079 36.760 C 132.030 36.598,132.389 36.935,132.629 38.212 C 132.845 39.364,133.033 39.580,133.649 39.385 C 134.135 39.230,134.491 39.372,134.649 39.784 C 134.807 40.196,135.164 40.339,135.649 40.184 C 136.131 40.031,136.491 40.171,136.645 40.572 C 136.787 40.942,137.361 41.200,138.043 41.200 C 138.679 41.200,139.200 41.380,139.200 41.600 C 139.200 41.820,139.380 42.000,139.600 42.000 C 140.546 42.000,139.879 41.109,138.500 40.529 C 137.105 39.943,137.061 39.876,137.878 39.570 C 139.202 39.075,155.760 38.920,156.000 39.400 C 156.110 39.620,155.750 39.860,155.200 39.934 C 154.650 40.007,154.029 40.232,153.820 40.434 C 153.611 40.635,152.936 40.800,152.320 40.800 C 151.591 40.800,151.200 41.010,151.200 41.400 C 151.200 41.730,151.380 42.000,151.600 42.000 C 151.820 42.000,152.000 41.820,152.000 41.600 C 152.000 41.380,152.540 41.200,153.200 41.200 C 153.860 41.200,154.400 41.020,154.400 40.800 C 154.400 40.580,154.919 40.400,155.554 40.400 C 156.481 40.400,156.840 40.123,157.373 39.000 C 157.860 37.975,158.294 37.600,158.995 37.600 C 159.522 37.600,160.064 37.420,160.200 37.200 C 160.336 36.980,161.301 36.800,162.344 36.800 C 163.387 36.800,164.411 36.638,164.620 36.441 C 165.022 36.061,167.444 35.632,170.344 35.427 C 171.304 35.359,172.232 35.071,172.408 34.787 C 172.664 34.373,175.886 34.319,188.737 34.515 C 201.004 34.702,204.785 34.647,204.908 34.279 C 205.143 33.579,241.619 33.587,241.888 34.287 C 242.017 34.621,242.629 34.699,243.830 34.534 C 245.242 34.340,245.634 34.423,245.839 34.959 C 246.002 35.383,246.359 35.540,246.822 35.393 C 247.861 35.063,250.400 36.600,250.400 37.559 C 250.400 37.788,250.665 37.873,250.990 37.749 C 251.629 37.503,252.800 38.451,252.800 39.214 C 252.800 39.473,253.056 39.587,253.370 39.467 C 254.046 39.207,256.257 41.200,257.757 43.422 C 258.980 45.232,260.224 46.942,261.461 48.515 C 261.935 49.117,262.236 49.943,262.129 50.350 C 262.013 50.795,262.191 51.188,262.578 51.336 C 263.025 51.508,263.147 51.872,262.980 52.537 C 262.813 53.201,262.935 53.566,263.380 53.737 C 263.825 53.908,263.947 54.273,263.780 54.937 C 263.610 55.614,263.736 55.966,264.213 56.150 C 264.690 56.333,264.815 56.685,264.645 57.362 C 264.498 57.948,264.597 58.390,264.903 58.507 C 265.608 58.778,265.574 229.675,264.869 229.910 C 264.212 230.129,264.196 250.000,264.853 250.000 C 265.172 250.000,265.205 250.502,264.967 251.700 C 264.392 254.591,264.620 351.462,265.204 352.407 C 265.560 352.983,266.092 352.267,266.953 350.050 C 267.588 348.418,267.589 348.251,266.968 347.565 C 266.548 347.100,266.411 346.567,266.598 346.115 C 266.796 345.634,266.954 345.564,267.080 345.900 C 267.430 346.837,268.016 346.404,267.763 345.395 C 267.500 344.346,268.218 343.040,268.845 343.428 C 269.040 343.549,269.215 343.592,269.234 343.524 C 269.515 342.495,270.068 184.998,269.790 185.277 C 269.641 185.425,269.544 196.257,269.574 209.346 C 269.633 234.820,269.613 235.200,268.207 235.200 C 267.255 235.200,266.800 236.374,266.800 238.826 C 266.800 239.446,266.620 240.064,266.400 240.200 C 265.921 240.496,265.899 238.734,265.907 201.164 C 265.912 176.008,265.983 172.793,266.557 171.684 C 267.351 170.148,267.383 168.845,266.634 168.558 C 266.166 168.378,266.068 166.496,266.065 157.670 C 266.062 148.146,266.118 147.215,266.583 149.000 C 266.870 150.100,267.126 150.595,267.152 150.100 C 267.179 149.605,267.363 149.200,267.562 149.200 C 268.090 149.200,268.480 152.643,268.384 156.471 C 268.339 158.302,268.438 161.433,268.605 163.429 C 268.815 165.931,268.761 167.507,268.431 168.506 C 268.027 169.729,268.055 170.113,268.611 170.960 C 268.973 171.513,269.155 172.149,269.015 172.375 C 268.330 173.485,268.552 179.200,269.281 179.200 C 269.970 179.200,270.000 176.735,270.000 120.800 C 270.000 84.508,269.857 62.400,269.623 62.400 C 269.416 62.400,269.172 61.635,269.082 60.700 C 268.992 59.765,268.873 74.210,268.819 92.800 C 268.704 132.345,268.688 133.306,268.103 135.400 C 267.857 136.280,267.508 137.887,267.328 138.970 C 267.147 140.054,266.775 141.014,266.500 141.104 C 265.694 141.367,265.694 112.673,266.500 111.687 C 266.794 111.327,266.777 110.730,266.444 109.687 C 266.081 108.551,266.059 102.624,266.350 84.600 L 266.731 61.000 264.515 54.400 C 262.861 49.473,261.979 47.444,261.037 46.396 C 260.343 45.623,258.971 43.767,257.987 42.271 C 256.142 39.463,251.319 35.646,247.706 34.134 C 245.533 33.225,239.216 32.732,227.800 32.582 C 222.300 32.510,216.900 32.295,215.800 32.105 C 214.700 31.915,213.170 31.893,212.400 32.056 C 211.630 32.219,210.595 32.254,210.101 32.133 C 209.606 32.012,207.986 32.211,206.501 32.575 C 203.426 33.328,195.970 33.626,194.253 33.064 C 193.487 32.814,192.211 32.858,190.403 33.199 C 188.168 33.621,187.223 33.614,184.950 33.159 C 183.438 32.856,181.930 32.658,181.600 32.720 C 181.270 32.782,178.082 32.817,174.515 32.798 C 169.398 32.771,167.779 32.894,166.835 33.382 C 166.178 33.722,165.035 34.000,164.296 34.000 C 163.557 34.000,162.617 34.245,162.207 34.545 C 161.567 35.014,161.287 34.989,160.230 34.375 C 158.811 33.548,156.800 33.747,156.800 34.713 C 156.800 35.054,156.665 35.198,156.500 35.033 C 156.335 34.868,156.200 34.523,156.200 34.267 C 156.200 34.010,155.615 33.744,154.900 33.675 C 154.185 33.606,153.600 33.728,153.600 33.947 C 153.600 34.165,153.195 34.402,152.700 34.472 C 152.024 34.568,151.831 34.824,151.925 35.500 C 152.076 36.588,151.076 36.705,149.346 35.802 C 148.716 35.474,147.840 35.201,147.400 35.197 C 146.108 35.184,144.793 34.736,145.011 34.382 C 145.432 33.701,144.256 33.509,143.766 34.179 C 143.322 34.786,143.063 34.817,141.835 34.411 C 141.054 34.154,140.265 34.036,140.081 34.150 C 139.897 34.264,138.948 34.079,137.973 33.739 C 136.824 33.338,135.418 33.189,133.977 33.315 C 132.640 33.432,131.397 33.319,130.859 33.032 L 129.965 32.553 130.782 31.514 C 131.231 30.942,133.038 29.783,134.796 28.937 C 137.871 27.458,138.673 26.800,137.400 26.800 C 137.070 26.800,136.800 26.946,136.800 27.125 M139.800 27.200 C 139.639 27.460,141.644 27.600,145.521 27.600 C 148.803 27.600,152.278 27.667,153.244 27.748 C 154.210 27.830,154.505 27.818,153.900 27.723 C 153.295 27.627,152.800 27.381,152.800 27.175 C 152.800 26.658,140.120 26.683,139.800 27.200 M169.600 29.557 C 169.600 30.348,172.182 30.408,205.457 30.389 C 235.771 30.371,239.954 30.297,239.441 29.784 C 238.729 29.072,214.800 28.893,214.800 29.600 C 214.800 29.862,207.267 30.000,193.000 30.000 C 178.733 30.000,171.200 29.862,171.200 29.600 C 171.200 29.380,170.840 29.200,170.400 29.200 C 169.960 29.200,169.600 29.361,169.600 29.557 M241.698 30.500 C 241.789 30.775,242.299 31.033,242.831 31.074 C 243.414 31.118,243.521 31.067,243.100 30.945 C 242.715 30.833,242.400 30.575,242.400 30.371 C 242.400 30.167,242.205 30.000,241.967 30.000 C 241.728 30.000,241.607 30.225,241.698 30.500 M244.898 31.300 C 244.988 31.575,245.588 31.829,246.231 31.863 C 247.046 31.908,247.128 31.869,246.500 31.736 C 246.005 31.630,245.600 31.377,245.600 31.172 C 245.600 30.967,245.405 30.800,245.167 30.800 C 244.928 30.800,244.807 31.025,244.898 31.300 M248.406 32.100 C 248.402 32.570,248.695 32.790,249.300 32.768 C 249.901 32.747,250.001 32.661,249.600 32.508 C 249.270 32.383,248.868 32.082,248.706 31.840 C 248.525 31.569,248.410 31.668,248.406 32.100 M255.206 35.838 C 255.196 36.557,256.683 37.714,256.986 37.223 C 257.131 36.987,256.924 36.674,256.525 36.526 C 256.126 36.379,255.668 36.065,255.506 35.829 C 255.299 35.526,255.210 35.529,255.206 35.838 M257.600 37.524 C 257.600 37.948,259.145 39.397,259.349 39.164 C 259.428 39.074,259.067 38.589,258.546 38.086 C 258.026 37.583,257.600 37.330,257.600 37.524 M259.437 39.940 C 259.164 40.382,260.709 41.825,261.069 41.464 C 261.214 41.319,261.123 41.200,260.867 41.200 C 260.610 41.200,260.400 40.941,260.400 40.624 C 260.400 39.922,259.739 39.452,259.437 39.940 M141.200 41.892 C 141.530 42.017,141.932 42.318,142.094 42.560 C 142.275 42.831,142.390 42.732,142.394 42.300 C 142.398 41.830,142.105 41.610,141.500 41.632 C 140.899 41.653,140.799 41.739,141.200 41.892 M144.667 41.867 C 144.160 42.374,144.403 42.800,145.200 42.800 C 145.640 42.800,146.000 42.629,146.000 42.421 C 146.000 42.212,146.945 41.976,148.100 41.895 C 150.121 41.754,150.101 41.745,147.567 41.674 C 146.118 41.633,144.813 41.720,144.667 41.867 M261.200 42.346 C 261.200 42.902,262.817 44.800,263.290 44.800 C 263.528 44.800,263.335 44.464,262.861 44.053 C 262.388 43.642,262.000 43.012,262.000 42.653 C 262.000 42.294,261.820 42.000,261.600 42.000 C 261.380 42.000,261.200 42.156,261.200 42.346 M263.437 45.540 C 263.164 45.982,264.709 47.425,265.069 47.064 C 265.214 46.919,265.123 46.800,264.867 46.800 C 264.610 46.800,264.400 46.541,264.400 46.224 C 264.400 45.522,263.739 45.052,263.437 45.540 M265.692 50.875 C 265.891 51.473,266.800 51.802,266.800 51.276 C 266.800 51.061,266.515 50.776,266.167 50.643 C 265.777 50.493,265.594 50.582,265.692 50.875 M268.000 57.329 C 268.000 57.651,268.270 58.018,268.600 58.145 C 268.930 58.271,269.200 58.278,269.200 58.159 C 269.200 58.040,268.930 57.673,268.600 57.343 C 268.080 56.822,268.000 56.821,268.000 57.329 M268.000 191.776 C 268.000 192.093,268.180 192.464,268.400 192.600 C 268.620 192.736,268.800 192.477,268.800 192.024 C 268.800 191.571,268.620 191.200,268.400 191.200 C 268.180 191.200,268.000 191.459,268.000 191.776 M268.200 240.933 C 268.200 241.976,267.416 241.911,267.266 240.855 C 267.175 240.208,267.300 239.967,267.666 240.089 C 267.960 240.187,268.200 240.567,268.200 240.933 M267.200 365.951 C 267.200 366.463,268.376 367.357,268.667 367.067 C 268.957 366.776,268.063 365.600,267.551 365.600 C 267.358 365.600,267.200 365.758,267.200 365.951 M264.794 368.011 C 264.555 368.457,264.188 368.716,263.977 368.586 C 263.766 368.456,263.302 368.641,262.945 368.998 C 262.589 369.354,262.046 369.550,261.739 369.432 C 260.528 368.967,259.712 370.533,259.911 372.938 C 260.037 374.457,259.951 375.200,259.650 375.200 C 259.402 375.200,259.200 375.470,259.200 375.800 C 259.200 376.303,260.150 376.410,265.100 376.463 C 268.345 376.497,271.540 376.580,272.200 376.647 C 273.573 376.786,276.400 376.038,276.400 375.536 C 276.400 375.351,276.152 375.200,275.849 375.200 C 274.521 375.200,273.970 373.138,274.593 370.500 C 274.896 369.216,274.882 369.200,273.450 369.200 C 272.653 369.200,272.000 369.040,272.000 368.844 C 272.000 368.480,269.999 368.028,267.734 367.882 C 267.038 367.837,266.333 367.665,266.168 367.500 C 265.668 367.002,265.251 367.157,264.794 368.011 M271.420 369.166 C 271.629 369.368,272.236 369.593,272.769 369.666 C 273.301 369.740,273.811 370.025,273.902 370.300 C 274.112 370.937,272.230 370.951,267.527 370.348 C 264.198 369.921,263.634 369.699,264.267 369.067 C 264.673 368.661,270.987 368.748,271.420 369.166 " stroke="none" fill="#6c7286" fill-rule="evenodd"></path><path id="path1" d="M135.313 29.208 C 133.952 29.872,132.746 30.564,132.633 30.747 C 131.705 32.249,156.655 32.720,158.125 31.228 C 158.921 30.420,157.287 29.500,155.538 29.771 C 154.256 29.969,154.100 29.906,154.270 29.255 C 154.760 27.379,139.142 27.340,135.313 29.208 M166.300 29.632 C 165.488 30.105,165.352 31.600,166.120 31.600 C 166.406 31.600,166.856 31.384,167.120 31.120 C 167.493 30.747,167.707 30.747,168.080 31.120 C 168.661 31.701,171.055 31.759,171.400 31.200 C 171.544 30.968,171.148 30.800,170.456 30.800 C 168.793 30.800,168.013 30.432,168.268 29.767 C 168.525 29.096,167.357 29.016,166.300 29.632 M185.916 31.097 C 187.299 31.175,189.459 31.174,190.716 31.095 C 191.972 31.016,190.840 30.952,188.200 30.953 C 185.560 30.953,184.532 31.018,185.916 31.097 M259.680 41.980 C 260.060 42.589,260.289 42.658,260.722 42.299 C 261.187 41.913,261.157 41.790,260.539 41.547 C 259.334 41.073,259.166 41.157,259.680 41.980 " stroke="none" fill="#a6a9b8" fill-rule="evenodd"></path><path id="path2" d="M157.380 23.966 C 157.171 24.168,156.550 24.393,156.000 24.466 C 155.248 24.567,154.969 24.873,154.873 25.700 C 154.774 26.564,154.538 26.800,153.773 26.800 C 153.238 26.800,152.800 26.980,152.800 27.200 C 152.800 27.884,155.488 27.669,155.759 26.963 C 155.955 26.452,156.382 26.374,157.902 26.570 C 160.376 26.889,161.592 26.204,159.252 25.809 C 156.905 25.412,157.011 24.400,159.400 24.400 C 160.390 24.400,161.200 24.220,161.200 24.000 C 161.200 23.499,157.895 23.470,157.380 23.966 M161.600 24.968 C 161.600 25.605,162.751 27.890,163.471 28.682 C 164.023 29.288,166.800 29.387,166.800 28.800 C 166.800 28.580,166.080 28.400,165.200 28.400 L 163.600 28.400 163.600 26.400 C 163.600 24.533,163.533 24.400,162.600 24.400 C 162.003 24.400,161.600 24.629,161.600 24.968 M135.600 27.200 C 135.600 27.420,135.240 27.600,134.800 27.600 C 134.360 27.600,134.000 27.780,134.000 28.000 C 134.000 28.220,133.640 28.400,133.200 28.400 C 132.760 28.400,132.400 28.580,132.400 28.800 C 132.400 29.020,132.114 29.200,131.765 29.200 C 131.139 29.200,126.800 33.413,126.800 34.022 C 126.800 34.577,130.442 38.000,131.032 38.000 C 131.344 38.000,131.600 38.360,131.600 38.800 C 131.600 39.272,131.867 39.600,132.250 39.600 C 132.768 39.600,132.848 39.340,132.644 38.320 C 132.385 37.026,131.707 36.286,131.116 36.652 C 130.939 36.761,130.526 36.583,130.199 36.256 C 129.872 35.929,129.149 35.304,128.593 34.866 L 127.583 34.071 129.565 32.036 C 130.656 30.916,131.740 30.000,131.974 30.000 C 132.208 30.000,132.400 29.820,132.400 29.600 C 132.400 29.380,132.760 29.200,133.200 29.200 C 133.640 29.200,134.000 29.054,134.000 28.875 C 134.000 28.696,134.630 28.302,135.400 28.000 C 136.840 27.435,137.263 26.800,136.200 26.800 C 135.870 26.800,135.600 26.980,135.600 27.200 M171.200 29.600 C 171.200 29.862,178.733 30.000,193.000 30.000 C 207.267 30.000,214.800 29.862,214.800 29.600 C 214.800 29.338,207.267 29.200,193.000 29.200 C 178.733 29.200,171.200 29.338,171.200 29.600 M239.200 29.600 C 239.200 29.820,239.661 30.000,240.224 30.000 C 240.804 30.000,241.140 29.827,241.000 29.600 C 240.864 29.380,240.403 29.200,239.976 29.200 C 239.549 29.200,239.200 29.380,239.200 29.600 M242.400 30.400 C 242.400 30.620,242.850 30.800,243.400 30.800 C 243.950 30.800,244.400 30.620,244.400 30.400 C 244.400 30.180,243.950 30.000,243.400 30.000 C 242.850 30.000,242.400 30.180,242.400 30.400 M245.600 31.200 C 245.600 31.420,246.050 31.600,246.600 31.600 C 247.150 31.600,247.600 31.420,247.600 31.200 C 247.600 30.980,247.150 30.800,246.600 30.800 C 246.050 30.800,245.600 30.980,245.600 31.200 M248.800 32.000 C 248.800 32.220,249.070 32.400,249.400 32.400 C 249.730 32.400,250.000 32.220,250.000 32.000 C 250.000 31.780,249.730 31.600,249.400 31.600 C 249.070 31.600,248.800 31.780,248.800 32.000 M250.800 32.625 C 250.800 32.925,251.873 34.000,252.171 34.000 C 252.680 34.000,252.351 33.362,251.600 32.893 C 251.160 32.618,250.800 32.498,250.800 32.625 M205.700 33.882 C 205.205 33.978,204.800 34.223,204.800 34.428 C 204.800 34.902,233.472 34.931,233.765 34.457 C 234.214 33.730,209.152 33.217,205.700 33.882 M239.500 33.869 C 238.205 34.220,238.786 34.800,240.433 34.800 C 241.561 34.800,242.016 34.645,241.902 34.300 C 241.724 33.761,240.626 33.563,239.500 33.869 M253.200 34.225 C 253.200 34.525,254.273 35.600,254.571 35.600 C 255.080 35.600,254.751 34.962,254.000 34.493 C 253.560 34.218,253.200 34.098,253.200 34.225 M172.316 34.851 C 172.234 35.099,171.364 35.358,170.383 35.426 C 167.461 35.629,165.025 36.058,164.620 36.441 C 164.411 36.638,163.387 36.800,162.344 36.800 C 161.301 36.800,160.336 36.980,160.200 37.200 C 160.064 37.420,159.522 37.600,158.995 37.600 C 158.294 37.600,157.860 37.975,157.373 39.000 C 156.840 40.123,156.481 40.400,155.554 40.400 C 154.919 40.400,154.400 40.580,154.400 40.800 C 154.400 41.644,156.704 41.179,157.870 40.100 C 159.716 38.392,160.632 38.000,162.771 38.000 C 163.861 38.000,164.864 37.820,165.000 37.600 C 165.136 37.380,166.036 37.200,167.000 37.200 C 167.964 37.200,168.864 37.020,169.000 36.800 C 169.136 36.580,169.856 36.400,170.600 36.400 C 171.344 36.400,172.064 36.220,172.200 36.000 C 172.357 35.746,177.330 35.600,185.800 35.600 C 198.575 35.600,203.038 35.208,196.528 34.658 C 191.111 34.200,172.484 34.349,172.316 34.851 M243.067 34.667 C 242.451 35.283,242.896 35.600,244.376 35.600 C 245.243 35.600,246.064 35.780,246.200 36.000 C 246.336 36.220,246.847 36.400,247.335 36.400 C 247.824 36.400,248.483 36.760,248.800 37.200 C 249.415 38.054,250.400 38.282,250.400 37.571 C 250.400 36.601,247.870 35.061,246.822 35.393 C 246.374 35.535,246.005 35.389,245.860 35.012 C 245.625 34.400,243.585 34.148,243.067 34.667 M258.000 37.429 C 258.000 37.853,259.236 38.897,259.467 38.667 C 259.592 38.541,259.417 38.160,259.076 37.819 C 258.441 37.184,258.000 37.024,258.000 37.429 M250.800 38.029 C 250.800 38.582,251.818 39.600,252.371 39.600 C 252.978 39.600,252.903 38.846,252.229 38.171 C 251.554 37.497,250.800 37.422,250.800 38.029 M133.467 39.467 C 132.960 39.974,133.203 40.400,134.000 40.400 C 134.440 40.400,134.800 40.580,134.800 40.800 C 134.800 41.020,135.265 41.200,135.833 41.200 C 136.487 41.200,136.802 41.016,136.690 40.700 C 136.593 40.425,136.173 40.232,135.757 40.272 C 135.341 40.312,134.857 40.087,134.680 39.772 C 134.335 39.154,133.891 39.043,133.467 39.467 M253.411 39.582 C 253.268 39.814,254.062 40.891,255.175 41.976 C 256.289 43.061,257.200 44.158,257.200 44.414 C 257.200 44.670,257.740 45.383,258.400 46.000 C 259.060 46.617,259.600 47.369,259.600 47.672 C 259.600 47.975,259.960 48.483,260.400 48.800 C 260.840 49.117,261.200 49.697,261.200 50.088 C 261.200 50.942,261.825 51.033,262.135 50.226 C 262.256 49.910,261.960 49.149,261.478 48.536 C 260.271 47.003,259.007 45.271,257.837 43.548 C 256.017 40.868,253.828 38.907,253.411 39.582 M137.200 41.600 C 137.200 41.820,137.650 42.000,138.200 42.000 C 138.750 42.000,139.200 41.820,139.200 41.600 C 139.200 41.380,138.750 41.200,138.200 41.200 C 137.650 41.200,137.200 41.380,137.200 41.600 M152.000 41.600 C 152.000 41.820,152.450 42.000,153.000 42.000 C 153.550 42.000,154.000 41.820,154.000 41.600 C 154.000 41.380,153.550 41.200,153.000 41.200 C 152.450 41.200,152.000 41.380,152.000 41.600 M140.400 42.400 C 140.400 42.620,140.760 42.800,141.200 42.800 C 141.640 42.800,142.000 42.620,142.000 42.400 C 142.000 42.180,141.640 42.000,141.200 42.000 C 140.760 42.000,140.400 42.180,140.400 42.400 M146.000 42.400 C 146.000 42.620,146.979 42.800,148.176 42.800 C 149.373 42.800,150.464 42.620,150.600 42.400 C 150.754 42.150,149.937 42.000,148.424 42.000 C 147.075 42.000,146.000 42.177,146.000 42.400 M262.000 43.029 C 262.000 43.453,263.236 44.497,263.467 44.267 C 263.592 44.141,263.417 43.760,263.076 43.419 C 262.441 42.784,262.000 42.624,262.000 43.029 M266.000 49.976 C 266.000 50.429,266.180 50.800,266.400 50.800 C 266.620 50.800,266.800 50.541,266.800 50.224 C 266.800 49.907,266.620 49.536,266.400 49.400 C 266.180 49.264,266.000 49.523,266.000 49.976 M262.000 52.200 C 262.000 52.750,262.161 53.200,262.357 53.200 C 262.824 53.200,263.267 52.032,262.978 51.564 C 262.542 50.859,262.000 51.212,262.000 52.200 M266.800 52.400 C 266.800 52.840,266.980 53.200,267.200 53.200 C 267.420 53.200,267.600 52.840,267.600 52.400 C 267.600 51.960,267.420 51.600,267.200 51.600 C 266.980 51.600,266.800 51.960,266.800 52.400 M262.800 54.600 C 262.800 55.150,262.961 55.600,263.157 55.600 C 263.624 55.600,264.067 54.432,263.778 53.964 C 263.342 53.259,262.800 53.612,262.800 54.600 M267.600 54.800 C 267.600 55.240,267.780 55.600,268.000 55.600 C 268.220 55.600,268.400 55.240,268.400 54.800 C 268.400 54.360,268.220 54.000,268.000 54.000 C 267.780 54.000,267.600 54.360,267.600 54.800 M263.600 57.000 C 263.600 57.676,263.783 58.006,264.100 57.900 C 264.375 57.808,264.600 57.403,264.600 57.000 C 264.600 56.597,264.375 56.192,264.100 56.100 C 263.783 55.994,263.600 56.324,263.600 57.000 M268.400 57.000 C 268.400 57.330,268.580 57.600,268.800 57.600 C 269.020 57.600,269.200 57.330,269.200 57.000 C 269.200 56.670,269.020 56.400,268.800 56.400 C 268.580 56.400,268.400 56.670,268.400 57.000 M264.400 144.167 C 264.400 191.375,264.551 230.000,264.735 230.000 C 265.631 230.000,265.666 58.790,264.770 58.467 C 264.544 58.385,264.400 91.745,264.400 144.167 M269.200 60.600 C 269.200 61.590,269.380 62.400,269.600 62.400 C 269.820 62.400,270.000 61.590,270.000 60.600 C 270.000 59.610,269.820 58.800,269.600 58.800 C 269.380 58.800,269.200 59.610,269.200 60.600 M269.853 230.911 C 269.710 256.040,269.568 291.270,269.537 309.200 C 269.481 341.260,269.426 343.787,268.803 343.402 C 268.211 343.036,267.509 344.381,267.763 345.395 C 268.016 346.404,267.430 346.837,267.080 345.900 C 266.954 345.564,266.796 345.634,266.598 346.115 C 266.411 346.567,266.548 347.100,266.968 347.565 C 267.589 348.251,267.588 348.418,266.953 350.050 C 264.979 355.130,264.946 354.768,264.872 327.713 C 264.808 303.975,264.729 301.749,263.971 302.218 C 263.535 302.487,263.450 368.116,263.885 368.551 C 264.041 368.708,264.467 368.442,264.830 367.960 C 265.288 367.354,265.661 367.195,266.045 367.442 C 266.350 367.639,267.140 367.834,267.800 367.875 C 268.460 367.916,269.630 368.072,270.400 368.221 C 271.550 368.444,271.711 368.399,271.300 367.967 C 270.903 367.548,270.800 348.713,270.800 276.544 C 270.800 226.351,270.646 185.552,270.457 185.435 C 270.267 185.318,269.997 205.644,269.853 230.911 M264.428 251.900 C 264.449 253.330,264.541 253.602,264.800 253.000 C 265.280 251.882,265.280 250.000,264.800 250.000 C 264.580 250.000,264.413 250.855,264.428 251.900 M268.408 366.210 C 268.686 366.545,268.803 366.931,268.667 367.067 C 268.376 367.357,267.200 366.463,267.200 365.951 C 267.200 365.400,267.852 365.540,268.408 366.210 M259.900 369.347 C 259.008 370.114,258.800 370.628,258.800 372.067 C 258.800 373.042,258.608 374.032,258.373 374.267 C 258.138 374.502,258.003 375.393,258.073 376.247 L 258.200 377.800 267.300 377.908 L 276.400 378.015 276.400 376.961 C 276.400 376.046,276.281 375.946,275.500 376.204 C 274.461 376.548,273.574 376.572,265.300 376.473 C 260.177 376.412,259.200 376.304,259.200 375.800 C 259.200 375.470,259.402 375.200,259.650 375.200 C 259.951 375.200,260.037 374.457,259.911 372.938 C 259.724 370.678,260.611 368.789,261.578 369.387 C 262.035 369.669,263.200 369.216,263.200 368.757 C 263.200 368.032,260.965 368.431,259.900 369.347 M272.000 368.800 C 272.000 369.020,272.461 369.200,273.024 369.200 C 273.604 369.200,273.940 369.027,273.800 368.800 C 273.664 368.580,273.203 368.400,272.776 368.400 C 272.349 368.400,272.000 368.580,272.000 368.800 M274.562 370.704 C 274.177 372.473,274.298 373.995,274.879 374.695 C 275.455 375.389,276.400 375.330,276.400 374.600 C 276.400 374.270,276.220 374.000,276.000 374.000 C 275.780 374.000,275.600 373.021,275.600 371.824 C 275.600 369.231,275.019 368.604,274.562 370.704 " stroke="none" fill="#3c3f4c" fill-rule="evenodd"></path><path id="path3" d="M153.538 28.287 C 154.231 28.419,154.424 28.666,154.276 29.231 C 154.098 29.910,154.242 29.972,155.538 29.771 C 157.287 29.500,158.921 30.420,158.125 31.228 C 157.187 32.180,138.551 32.477,134.714 31.601 C 132.209 31.029,132.137 30.752,134.231 29.758 C 135.000 29.394,135.553 29.020,135.461 28.928 C 134.946 28.413,130.962 31.291,131.341 31.904 C 131.845 32.720,150.152 33.284,156.311 32.672 C 158.096 32.495,159.515 32.540,159.981 32.790 C 160.970 33.319,170.847 32.297,172.800 31.463 L 174.200 30.865 171.666 30.577 C 170.035 30.392,169.053 30.083,168.910 29.711 C 168.732 29.246,168.626 29.235,168.365 29.656 C 167.935 30.352,168.683 30.786,170.324 30.794 C 171.103 30.797,171.546 30.964,171.400 31.200 C 171.055 31.759,168.661 31.701,168.080 31.120 C 167.707 30.747,167.493 30.747,167.120 31.120 C 166.248 31.992,165.489 31.692,165.706 30.560 C 165.894 29.574,165.838 29.534,164.652 29.808 C 163.148 30.155,162.625 30.167,160.800 29.891 C 157.431 29.382,156.323 29.064,156.125 28.549 C 155.988 28.192,155.334 28.019,154.257 28.054 C 153.261 28.087,152.974 28.180,153.538 28.287 M240.655 30.600 C 240.803 30.985,240.647 31.200,240.219 31.200 C 239.853 31.200,239.659 31.029,239.788 30.819 C 240.063 30.374,219.298 30.316,216.200 30.754 C 214.347 31.016,224.369 31.942,226.400 31.697 C 229.519 31.320,235.401 31.293,237.726 31.645 C 242.179 32.320,244.509 32.300,244.614 31.588 C 244.682 31.122,244.356 31.021,243.154 31.136 C 242.008 31.245,241.543 31.117,241.361 30.642 C 241.225 30.289,240.959 30.000,240.770 30.000 C 240.580 30.000,240.529 30.270,240.655 30.600 M177.800 30.800 C 173.908 31.069,174.369 31.243,179.400 31.406 C 181.160 31.463,183.680 31.687,185.000 31.904 C 186.320 32.121,188.210 32.216,189.200 32.115 C 190.190 32.014,194.330 31.892,198.400 31.843 C 206.120 31.749,209.931 31.323,208.000 30.767 C 206.799 30.422,182.898 30.448,177.800 30.800 M190.716 31.095 C 189.459 31.174,187.299 31.175,185.916 31.097 C 184.532 31.018,185.560 30.953,188.200 30.953 C 190.840 30.952,191.972 31.016,190.716 31.095 M246.600 32.165 L 245.400 32.661 246.547 32.950 C 247.838 33.275,248.132 33.131,247.935 32.266 C 247.821 31.762,247.613 31.747,246.600 32.165 M248.675 33.058 C 248.533 33.200,249.722 34.145,251.317 35.158 C 255.574 37.862,257.165 39.221,258.037 40.900 C 258.466 41.725,258.993 42.400,259.208 42.400 C 259.424 42.400,259.600 42.678,259.600 43.017 C 259.600 43.357,260.401 44.491,261.380 45.537 C 263.301 47.591,264.159 49.327,265.559 54.000 C 266.912 58.516,267.942 60.618,268.519 60.041 C 268.885 59.675,268.866 59.488,268.439 59.224 C 267.997 58.951,268.038 58.841,268.642 58.687 C 269.375 58.499,269.375 58.491,268.650 58.446 C 268.036 58.408,267.943 58.183,268.140 57.200 C 268.320 56.301,268.232 56.000,267.790 56.000 C 267.427 56.000,267.200 55.615,267.200 55.000 C 267.200 54.450,267.020 54.000,266.800 54.000 C 266.580 54.000,266.400 53.550,266.400 53.000 C 266.400 52.450,266.220 52.000,266.000 52.000 C 265.780 52.000,265.600 51.571,265.600 51.046 C 265.600 49.908,264.631 47.902,264.261 48.273 C 264.117 48.416,264.000 48.323,264.000 48.067 C 264.000 47.810,264.220 47.600,264.489 47.600 C 264.758 47.600,264.562 47.309,264.055 46.953 C 263.460 46.537,263.201 46.038,263.328 45.553 C 263.483 44.960,263.299 44.793,262.463 44.768 C 261.878 44.751,261.632 44.644,261.916 44.530 C 262.289 44.380,262.195 44.116,261.580 43.582 C 261.048 43.121,260.845 42.646,261.040 42.321 C 261.289 41.907,261.231 41.899,260.760 42.280 C 260.283 42.666,260.072 42.607,259.680 41.980 C 259.294 41.362,259.298 41.199,259.697 41.194 C 260.061 41.189,260.046 41.090,259.642 40.834 C 259.335 40.640,259.194 40.193,259.329 39.840 C 259.514 39.360,259.329 39.200,258.587 39.200 C 257.804 39.200,257.600 38.996,257.600 38.213 C 257.600 37.510,257.431 37.290,257.014 37.450 C 256.533 37.635,254.387 36.484,253.600 35.619 C 253.490 35.498,252.905 35.144,252.300 34.832 C 251.695 34.520,251.200 34.115,251.200 33.932 C 251.200 33.750,250.840 33.600,250.400 33.600 C 249.960 33.600,249.600 33.420,249.600 33.200 C 249.600 32.749,249.066 32.667,248.675 33.058 M141.300 40.682 C 140.805 40.778,140.400 40.998,140.400 41.172 C 140.400 41.347,140.837 41.406,141.371 41.303 C 142.056 41.172,142.497 41.365,142.867 41.959 C 143.529 43.019,144.000 43.036,144.000 42.000 C 144.000 41.267,144.267 41.200,147.200 41.200 C 149.067 41.200,150.400 41.033,150.400 40.800 C 150.400 40.408,143.207 40.315,141.300 40.682 M268.101 64.600 C 268.105 65.480,268.187 65.793,268.283 65.295 C 268.379 64.798,268.375 64.078,268.275 63.695 C 268.175 63.313,268.096 63.720,268.101 64.600 M268.120 75.200 C 268.120 76.410,268.195 76.905,268.287 76.300 C 268.378 75.695,268.378 74.705,268.287 74.100 C 268.195 73.495,268.120 73.990,268.120 75.200 M267.831 91.200 C 267.409 95.256,267.425 98.797,267.883 102.600 L 268.220 105.400 268.497 100.400 C 268.650 97.650,268.642 93.690,268.479 91.600 L 268.185 87.800 267.831 91.200 M268.059 109.400 L 268.094 112.200 268.448 110.067 C 268.670 108.734,268.657 107.684,268.414 107.267 C 268.137 106.792,268.034 107.408,268.059 109.400 M267.854 119.056 C 267.480 121.790,267.545 124.000,268.000 124.000 C 268.235 124.000,268.400 122.600,268.400 120.600 C 268.400 116.787,268.231 116.308,267.854 119.056 " stroke="none" fill="#959aa9" fill-rule="evenodd"></path><path id="path4" d="M137.684 27.415 C 137.233 27.926,138.166 27.989,145.084 27.910 L 153.000 27.821 146.282 27.701 C 142.048 27.625,139.654 27.436,139.806 27.190 C 140.192 26.565,138.253 26.771,137.684 27.415 M155.712 27.447 C 154.321 28.050,156.968 29.377,160.426 29.812 C 161.355 29.928,162.252 30.109,162.421 30.213 C 162.589 30.317,163.148 30.233,163.663 30.026 C 164.248 29.792,164.360 29.641,163.962 29.625 C 163.611 29.611,163.018 29.262,162.645 28.849 C 162.250 28.414,161.175 28.001,160.083 27.866 C 159.047 27.738,157.750 27.544,157.200 27.435 C 156.650 27.325,155.980 27.331,155.712 27.447 M168.900 29.700 C 168.991 29.975,169.399 30.264,169.805 30.343 C 170.483 30.475,170.491 30.434,169.900 29.843 C 169.132 29.075,168.670 29.008,168.900 29.700 M130.811 31.476 L 129.965 32.553 130.859 33.032 C 131.397 33.319,132.640 33.432,133.977 33.315 C 135.418 33.189,136.824 33.338,137.973 33.739 C 138.948 34.079,139.897 34.264,140.081 34.150 C 140.265 34.036,141.054 34.154,141.835 34.411 C 143.063 34.817,143.322 34.786,143.766 34.179 C 144.256 33.509,145.432 33.701,145.011 34.382 C 144.793 34.736,146.108 35.184,147.400 35.197 C 147.840 35.201,148.716 35.474,149.346 35.802 C 151.076 36.705,152.076 36.588,151.925 35.500 C 151.831 34.824,152.024 34.568,152.700 34.472 C 153.195 34.402,153.600 34.165,153.600 33.947 C 153.600 33.728,154.185 33.606,154.900 33.675 C 155.615 33.744,156.200 34.010,156.200 34.267 C 156.200 34.523,156.335 34.868,156.500 35.033 C 156.665 35.198,156.800 35.054,156.800 34.713 C 156.800 33.747,158.811 33.548,160.230 34.375 C 161.287 34.989,161.567 35.014,162.207 34.545 C 162.617 34.245,163.557 34.000,164.296 34.000 C 165.035 34.000,166.178 33.722,166.835 33.382 C 167.779 32.894,169.398 32.771,174.515 32.798 C 178.082 32.817,181.270 32.782,181.600 32.720 C 181.930 32.658,183.438 32.856,184.950 33.159 C 187.223 33.614,188.168 33.621,190.403 33.199 C 192.211 32.858,193.487 32.814,194.253 33.064 C 195.970 33.626,203.426 33.328,206.501 32.575 C 207.986 32.211,209.606 32.012,210.101 32.133 C 210.595 32.254,211.630 32.219,212.400 32.056 C 213.170 31.893,214.700 31.915,215.800 32.105 C 216.900 32.295,222.300 32.510,227.800 32.582 C 239.216 32.732,245.533 33.225,247.706 34.134 C 251.319 35.646,256.142 39.463,257.987 42.271 C 258.971 43.767,260.343 45.623,261.037 46.396 C 261.979 47.444,262.861 49.473,264.515 54.400 L 266.731 61.000 266.350 84.600 C 266.059 102.624,266.081 108.551,266.444 109.687 C 266.777 110.730,266.794 111.327,266.500 111.687 C 265.694 112.673,265.694 141.367,266.500 141.104 C 266.775 141.014,267.147 140.054,267.328 138.970 C 267.508 137.887,267.851 136.280,268.090 135.400 C 268.477 133.974,268.744 129.877,268.924 122.600 C 269.054 117.351,268.689 108.988,268.400 110.600 C 268.151 111.991,268.107 111.834,268.063 109.400 C 268.028 107.462,268.132 106.785,268.400 107.200 C 268.662 107.606,268.767 106.507,268.723 103.800 C 268.660 99.876,268.654 99.853,268.419 102.600 L 268.180 105.400 267.871 102.600 C 267.432 98.627,267.422 95.123,267.839 91.200 L 268.200 87.800 268.427 91.000 C 268.551 92.760,268.686 86.494,268.727 77.076 C 268.775 65.883,268.663 60.037,268.405 60.197 C 267.914 60.500,266.741 57.946,265.559 54.000 C 264.159 49.327,263.301 47.591,261.380 45.537 C 260.401 44.491,259.600 43.357,259.600 43.017 C 259.600 42.678,259.424 42.400,259.208 42.400 C 258.993 42.400,258.466 41.725,258.037 40.900 C 257.174 39.239,255.605 37.890,251.408 35.200 C 249.743 34.132,248.544 33.075,248.462 32.600 C 248.262 31.442,248.000 31.317,248.000 32.380 C 248.000 33.132,247.841 33.251,247.100 33.052 C 246.605 32.919,246.020 32.806,245.800 32.799 C 245.580 32.793,245.670 32.613,246.000 32.400 C 246.522 32.063,246.515 32.011,245.949 32.006 C 245.591 32.003,245.074 31.730,244.800 31.400 C 244.526 31.070,244.099 30.805,243.851 30.812 C 243.603 30.819,243.719 31.010,244.108 31.237 C 245.917 32.289,243.201 32.461,237.726 31.641 C 235.401 31.293,229.507 31.321,226.400 31.697 C 224.588 31.916,214.338 31.004,216.000 30.772 C 217.067 30.623,215.602 30.512,212.400 30.500 C 209.430 30.489,207.450 30.609,208.000 30.767 C 209.931 31.323,206.120 31.749,198.400 31.843 C 194.330 31.892,190.190 32.014,189.200 32.115 C 188.210 32.216,186.320 32.121,185.000 31.904 C 183.680 31.687,181.160 31.463,179.400 31.406 C 174.369 31.243,173.908 31.069,177.800 30.800 L 181.400 30.551 176.600 30.536 C 173.960 30.527,172.338 30.599,172.996 30.696 L 174.192 30.872 172.796 31.466 C 170.843 32.298,160.968 33.318,159.981 32.790 C 159.515 32.540,158.096 32.495,156.311 32.672 C 150.247 33.274,131.847 32.723,131.354 31.925 C 131.231 31.727,131.349 31.303,131.615 30.982 C 131.880 30.662,131.999 30.400,131.878 30.400 C 131.757 30.400,131.277 30.884,130.811 31.476 M249.781 32.831 C 249.441 33.382,249.785 33.706,250.529 33.535 C 251.024 33.422,251.033 33.319,250.582 32.904 C 250.214 32.566,249.959 32.543,249.781 32.831 M252.196 34.407 C 252.060 34.626,252.238 34.917,252.592 35.052 C 253.453 35.383,253.643 35.114,252.981 34.504 C 252.639 34.189,252.352 34.153,252.196 34.407 M254.400 35.954 C 254.400 36.149,254.873 36.618,255.451 36.996 L 256.501 37.685 255.751 36.655 C 254.991 35.613,254.400 35.306,254.400 35.954 M140.094 39.240 C 137.001 39.536,136.710 39.785,138.557 40.556 C 139.351 40.888,140.000 41.344,140.000 41.570 C 140.000 41.812,140.490 41.882,141.200 41.740 C 142.139 41.552,142.400 41.641,142.400 42.150 C 142.400 42.508,142.580 42.800,142.800 42.800 C 143.390 42.800,143.286 42.169,142.602 41.602 C 142.273 41.329,141.643 41.200,141.202 41.315 C 140.761 41.431,140.400 41.384,140.400 41.213 C 140.400 40.696,142.680 40.400,146.650 40.400 C 148.883 40.400,150.400 40.562,150.400 40.800 C 150.400 41.033,149.067 41.200,147.200 41.200 C 144.174 41.200,144.000 41.248,144.000 42.076 C 144.000 42.907,144.028 42.915,144.536 42.220 C 144.999 41.586,145.488 41.513,148.136 41.683 C 150.539 41.837,151.200 41.763,151.200 41.340 C 151.200 41.015,151.646 40.800,152.320 40.800 C 152.936 40.800,153.611 40.635,153.820 40.434 C 154.029 40.232,154.612 40.007,155.116 39.934 C 160.045 39.213,146.778 38.600,140.094 39.240 M265.281 49.582 C 265.833 50.466,266.222 50.355,265.862 49.417 C 265.732 49.078,265.438 48.800,265.209 48.800 C 264.946 48.800,264.972 49.087,265.281 49.582 M268.283 65.295 C 268.187 65.793,268.105 65.480,268.101 64.600 C 268.096 63.720,268.175 63.313,268.275 63.695 C 268.375 64.078,268.379 64.798,268.283 65.295 M268.287 76.300 C 268.195 76.905,268.120 76.410,268.120 75.200 C 268.120 73.990,268.195 73.495,268.287 74.100 C 268.378 74.705,268.378 75.695,268.287 76.300 M268.400 120.600 C 268.400 122.600,268.235 124.000,268.000 124.000 C 267.545 124.000,267.480 121.790,267.854 119.056 C 268.231 116.308,268.400 116.787,268.400 120.600 M266.065 157.670 C 266.068 166.496,266.166 168.378,266.634 168.558 C 267.383 168.845,267.351 170.148,266.557 171.684 C 265.983 172.793,265.912 176.008,265.907 201.164 C 265.899 238.734,265.921 240.496,266.400 240.200 C 266.620 240.064,266.800 239.446,266.800 238.826 C 266.800 236.374,267.255 235.200,268.207 235.200 C 269.615 235.200,269.646 234.662,269.584 211.247 C 269.553 199.231,269.660 187.105,269.822 184.300 C 270.104 179.415,270.084 179.200,269.340 179.200 C 268.556 179.200,268.288 173.552,269.015 172.375 C 269.155 172.149,268.973 171.513,268.611 170.960 C 268.055 170.113,268.027 169.729,268.431 168.506 C 268.761 167.507,268.815 165.931,268.605 163.429 C 268.438 161.433,268.339 158.302,268.384 156.471 C 268.480 152.643,268.090 149.200,267.562 149.200 C 267.363 149.200,267.179 149.605,267.152 150.100 C 267.126 150.595,266.870 150.100,266.583 149.000 C 266.118 147.215,266.062 148.146,266.065 157.670 M268.800 192.024 C 268.800 192.477,268.620 192.736,268.400 192.600 C 268.180 192.464,268.000 192.093,268.000 191.776 C 268.000 191.459,268.180 191.200,268.400 191.200 C 268.620 191.200,268.800 191.571,268.800 192.024 M267.266 240.855 C 267.340 241.375,267.580 241.755,267.800 241.700 C 268.390 241.552,268.286 240.295,267.666 240.089 C 267.300 239.967,267.175 240.208,267.266 240.855 M264.267 369.067 C 263.634 369.699,264.198 369.921,267.527 370.348 C 272.230 370.951,274.112 370.937,273.902 370.300 C 273.811 370.025,273.301 369.738,272.769 369.662 C 272.236 369.586,271.575 369.339,271.300 369.113 C 270.953 368.828,270.800 368.839,270.800 369.151 C 270.800 369.398,270.395 369.587,269.900 369.572 C 269.041 369.545,269.037 369.528,269.800 369.200 C 270.345 368.966,269.633 368.847,267.567 368.828 C 265.898 368.813,264.413 368.920,264.267 369.067 " stroke="none" fill="#838d9a" fill-rule="evenodd"></path></g></svg>